<svg width="119" height="119" viewBox="0 0 119 119" fill="none" xmlns="http://www.w3.org/2000/svg">
<path d="M66.0699 6.21073C61.4898 3.56648 55.8469 3.56648 51.2668 6.21073L16.0702 26.5309C11.4899 29.1752 8.66833 34.0623 8.66833 39.3511V79.9907C8.66833 85.2795 11.4899 90.1666 16.0702 92.8109L51.2668 113.131C55.8469 115.775 61.4898 115.775 66.0699 113.131L101.266 92.8109C105.847 90.1666 108.668 85.2795 108.668 79.9907V39.3511C108.668 34.0623 105.847 29.1752 101.266 26.5309L66.0699 6.21073ZM98.2077 73.0156C98.2077 78.1368 95.5607 82.8943 91.2091 85.5943L66.4732 100.942C61.6927 103.909 55.644 103.909 50.8635 100.942L26.1276 85.5943C21.776 82.8943 19.129 78.1368 19.129 73.0156V46.3346C19.129 41.2133 21.776 36.4559 26.1276 33.7558L50.8635 18.4077C55.644 15.4415 61.6927 15.4415 66.4732 18.4077L91.2091 33.7558C95.5607 36.4559 98.2077 41.2133 98.2077 46.3346V73.0156Z" fill="url(#paint0_linear)"/>
<path d="M58.6596 46.4085C63.377 46.4085 67.2012 42.5843 67.2012 37.8669C67.2012 33.1494 63.377 29.3252 58.6596 29.3252C53.9421 29.3252 50.1179 33.1494 50.1179 37.8669C50.1179 42.5843 53.9421 46.4085 58.6596 46.4085Z" fill="url(#paint1_linear)"/>
<defs>
<linearGradient id="paint0_linear" x1="58.6683" y1="4.22754" x2="58.6683" y2="115.114" gradientUnits="userSpaceOnUse">
<stop stop-color="#8B5CF6"/>
<stop offset="1" stop-color="#7DA2FF"/>
</linearGradient>
<linearGradient id="paint1_linear" x1="58.6596" y1="29.3252" x2="58.6596" y2="46.4085" gradientUnits="userSpaceOnUse">
<stop stop-color="#8B5CF6"/>
<stop offset="1" stop-color="#7DA2FF"/>
</linearGradient>
</defs>
</svg>
